<svg xmlns="http://www.w3.org/2000/svg" version="1.1" width="600px" height="600px" viewBox="0 0 200 200" style="overflow:hidden!important;"><g id="svga-group-wrapper"><g id="svga-group-backs-single"></g><g id="svga-group-humanwrap-move" transform="matrix(1,0,0,1,0,0)"><g id="svga-group-humanwrap"><g id="svga-group-hair-back-move" transform="matrix(1,0,0,1,0,0)"><g id="svga-group-hair-back"></g></g><g id="svga-group-humanbody-back"><path id="SvgjsPath5051" d="m170 180.3-27.3-6.9-18-9.9-1.5-28.2H76.8l-1.5 28.2-18 9.9-27.3 6.9-9.1 19.7-3 20h164.2l-3-20z" fill="#f0c7b1" stroke-width="none" opacity="1" stroke="none"></path><path id="SvgjsPath5052" d="m76.8 135.3-1.5 28.2-18 9.9-27.3 6.9-9.1 19.7-3 20h14.6v-20l2.7-17.7 23.8-6.4 24.7-8.3 3.5-32.3z" fill="#d19271" stroke-width="none" opacity="1" stroke="none"></path></g><g id="svga-group-chinshadow-single"><path id="SvgjsPath5276" d="m123.7 145.5-.5-10.2H76.8l-.8 15.1 7.1 6.4 14.1 4.1 14.2-4.1z" fill="#c27b55" stroke-width="none" opacity="1" stroke="none"></path></g><g id="svga-group-humanbody-front"><path id="SvgjsPath5053" d="m92.8 168.3 2 7.9 6.9 4.6s-8.5-3-8.7-3.6c-.2-.6-.2-8.9-.2-8.9z" fill="#d19271" stroke-width="none" opacity="1" stroke="none"></path></g><g id="svga-group-clothes-single"><path id="SvgjsPath9326" d="m179.6 200-8.5-20-28.8-7.4-9.5-4.8-.1-1.5-8.3-8.8.2 3.5-1.1 12.2-7.6 7.9-9.1 1.9-2.1 5.7-2.1 2.9-7.5-9.3-10.7-1.2-5.8-7.3-3.2-13.1.2-3.2-8.3 8.8-.1 1.5-9.5 4.8L29 180l-8.6 20-3.4 20h165.9z" fill="#386e77" stroke-width="none" opacity="1"></path><path id="SvgjsPath9327" d="m29.9 200.7 3.6-10.8 24.9-9.6 7.2-3.2.3-2 11.5-5.7h.1l-2.1-8.7.2-3.2-8.3 8.8-.1 1.5-9.5 4.8L29 180l-8.6 20-3.4 20h12.6z" fill="#265e68" stroke-width="none" opacity="1"></path><path id="SvgjsPath9328" d="m132.8 167.8 2.7 19.2 1.2 8.7L125 188l-5.2-5.3-4.2-1.6 4 3.4-6.4 2.6-7.9 1.5 7-.6-8.7 11.8V220h1.7l-.8-19.8 7.8-12 1-.1 7.1-2.8 4.2 4.5 13.3 8.1-1.6-12.4-3.5-17.7zm-33.1 29.7 2.9-5.9-3.5 5-6.1-8.7-12.5-3.4 3.8-3.3-4.2 1.6L75 188l-11.7 7.7 1.2-8.7 2.7-19.2-3.4 17.7-1.6 12.4 13.3-8.1 4.6-4.9.5-.5 11.8 4.3 6.1 8.6-1.2.7 1.1 21.9h1.5l-1.3-21 1.1-1.4zm10.5-12.8-1.5-.8-.9 1.4 1.4 1 1-1.6zm-9.3 13.3 1.4 1 1-1.7-1.5-.8-.9 1.5zm-.8 18.6 1.4 1 1-1.7-1.5-.8-.9 1.5zm-69.7-35.3 6.8 21 1.2 17.7h1.4l-1.1-17.8-8.3-20.9zm130.5 19.3-1.2 19.4h1.9l1-19.2 7-18.2-8.7 18z" fill="#184f58" stroke-width="none" opacity="1"></path><path id="SvgjsPath9329" d="m127 162.5-1.1-1.4v13l-5.3 8 4.8 4.6s2.3-11.1 2.3-11.8c0-.7-.7-12.4-.7-12.4zm-53.2.1.5-2.3-1.8 2.5 1.2 13.4 2.1 9.5 3.8-4.3-3.9-6.1-1.9-12.7z" fill="#4d7e86" stroke-width="none" opacity="1"></path></g><g id="svga-group-head" transform="matrix(1,0,0,1,0,0)"><g id="svga-group-ears-left-move" transform="matrix(1,0,0,1,0,0)"><g id="svga-group-ears-left"><path id="SvgjsPath6374" d="M60.9 93s-5.5-3-7.7-3.9c0 0-3.9 5.4-5.1 7.2 0 0 3.1 14.7 3.9 17.3l5 6.5 5.4-1.7 4.2-14.2L60.9 93z" fill="#f0c7b1" stroke-width="none" opacity="1"></path><path id="SvgjsPath6375" d="M58.8 104.7c-.2-.4-6-10-6-10l-2.3 7.9 2.6-2.4 1.6 2.9s-.3 5-.2 5.5c0 .5 2.4 4.3 2.4 4.3l1.9-8.2z" fill="#d19271" stroke-width="none" opacity="1"></path><path id="SvgjsPath6376" d="m58.4 98-5.2-8.9c2.2.9 7.7 1.8 7.7 1.8l5.7 13.3-4.2 14.2-5.4 1.7 3.6-3.4L58.4 98z" fill="#e1ac8f" stroke-width="none" opacity="1"></path></g></g><g id="svga-group-ears-right-move" transform="matrix(1,0,0,1,0,0)"><g id="svga-group-ears-right"><path id="SvgjsPath6377" d="M139.1 93s5.5-3 7.7-3.9c0 0 3.9 5.4 5.1 7.2 0 0-3.1 14.7-3.9 17.3l-5 6.5-5.4-1.7-4.2-14.2 5.7-11.2z" fill="#f0c7b1" stroke-width="none" opacity="1"></path><path id="SvgjsPath6378" d="M141.2 104.7c.2-.4 6-10 6-10l2.3 7.9-2.6-2.4-1.6 2.9s.3 5 .2 5.5c0 .5-2.4 4.3-2.4 4.3l-1.9-8.2z" fill="#d19271" stroke-width="none" opacity="1"></path><path id="SvgjsPath6379" d="m141.6 98 5.2-8.9c-2.2.9-7.7 1.8-7.7 1.8l-5.7 13.3 4.2 14.2 5.4 1.7-3.6-3.4 2.2-18.7z" fill="#e1ac8f" stroke-width="none" opacity="1"></path></g></g><g id="svga-group-faceshape-wrap"><g id="svga-group-faceshape-single"><path id="SvgjsPath5266" d="M138.1 60c-6.9-11.6-19.7-19.5-19.7-19.5-7.2-1.5-18.4-2.3-18.4-2.3s-11.1.8-18.4 2.3c0 0-12.8 7.9-19.7 19.5 0 0-5.1 14.5-5.3 24.8l3.7 42.9 25.6 23.5 14.1 4 14.1-4 25.6-23.5 3.7-42.9c-.2-10.3-5.3-24.8-5.3-24.8z" fill="#f0c7b1" stroke-width="none" opacity="1" stroke="none"></path><path id="SvgjsPath5267" d="M86.5 148.4 66.3 125l-3.8-40.6 3.6-22.8c1.9-3.3 17.1-17.5 17.1-17.5l16.6-3 18.6-.6c-7.2-1.5-18.4-2.3-18.4-2.3s-11.1.8-18.4 2.3c0 0-12.8 7.9-19.7 19.5 0 0-5.1 14.5-5.3 24.8l3.7 42.9 25.6 23.5 14.1 4 14.1-4-14.4 2.6-13.2-5.4z" fill="#d19271" stroke-width="none" opacity="1" stroke="none"></path></g></g><g id="svga-group-mouth-single-move" transform="matrix(1,0,0,1,0,0)"><g id="svga-group-mouth-single"><path id="SvgjsPath6015" d="m84.24 127.12 9.86 1.08 6.5 2.2 6-2.7 9.84-.08-10.24-1.72H93.3z" fill="#da7c87" stroke-width="none" opacity="1" transform="translate(0 2)" stroke="none"></path><path id="SvgjsPath6016" d="m88.92 131.27 6.38 2.43 10.5.3 4.52-2.63L106 135H95.2z" fill="#d19271" stroke-width="none" opacity="1" transform="translate(0 2)" stroke="none"></path></g></g><g id="svga-group-eyes-left-move" transform="matrix(1,0,0,1,0,0)"><g id="svga-group-eyes-left"><g id="svga-group-eyesback-left"><path id="SvgjsPath7338" d="M92.5 96.6 88 92.7S75 92 74.7 92s-6.3 4.2-6.1 4.4c.2.2 6.5 3 9 3.5 0 0 3.8 0 7.7-.8 2.8-.8 5.7-1.9 7.2-2.5z" fill="#ffffff" stroke-width="none" opacity="1"></path></g><g id="svga-group-eyesiriswrapper-left" transform="matrix(1,0,0,1,0,0)"><g id="svga-group-eyesiriscontrol-left" transform="matrix(1,0,0,1,0,0)"><g id="svga-group-eyesiris-left"><path id="SvgjsPath7926" d="m79.4 99.5-2.6-1.9-1-3 1-3.1 2.6-1.9h3.2l2.6 1.9 1 3.1-1 3-2.6 1.9z" fill="#4e60a3" stroke-width="none" opacity="1"></path><path id="SvgjsPath7927" d="m82.5 89.8 2.5 1.8.9 2.9-.9 3-2.5 1.8h-3.1L77 97.5l-.9-2.9.9-2.9 2.5-1.8h3m.2-.6h-3.4l-2.8 2-1.1 3.2 1.1 3.2 2.8 2h3.4l2.8-2 1.1-3.2-1.1-3.2-2.8-2z" fill="#253984" stroke-width="none" opacity="1"></path><path id="SvgjsPath7928" d="M81.8 91.9h-1.6l-1.4 1-.6 1.7.6 1.6 1.4 1h1.6l1.4-1 .6-1.6-.6-1.7z" fill="#000000" stroke-width="none" opacity="1"></path><path id="SvgjsPath7929" d="m82.4 99.2.2-.8.9.2.1-.9.8.2s-.2-.8-.1-.8.8.1.8.1l-.5-.8.8-.2-.4-.9.9-.3-.7-.5.5-.7-.7-.3.3-.9-.6-.2.2-.8h-.6l-.2-.6h-.4l-.1-.6 1.3.7.8 1.9.5 1.5-.1.5-.8 2.5-2 1.5-.9.6-2.4-.2.5-.6.5.4.6-.4.8.4z" fill="#253984" stroke-width="none" opacity="1"></path><path id="SvgjsPath7930" d="m76.9 95.9 1.2-.4v.2l-1.2.3v-.1zm.9-1.8c-.5-.1-1-.1-1.1-.1l-.1-.2s.1 0 1.1.1l.1.2zm.5-2.9.1-.1.6.8-.1.1-.6-.8zm2.2-.7h.2v.9h-.2v-.9zm2.8 1.7.7-.6.1.1-.7.6-.1-.1zm.9 1.7.7-.1v.2l-.7.1v-.2zm-.2 1.7.1-.2.7.3-.1.2-.7-.3zm-1.5 1.6.2-.1.4.8-.2.1-.4-.8zm-3.2 1.5.4-1.2.2.1-.4 1.2-.2-.1zm-1.2-1.3.3-.4.1.1-.3.4-.1-.1z" fill="#0e226d" stroke-width="none" opacity="1"></path><path id="SvgjsPath7931" d="m80.6 92.1-1-.3-.7.7.2.9 1 .3.7-.7z" fill="#ffffff" stroke-width="none" opacity="1"></path><path id="SvgjsPath7932" d="m82.7 96.3-.5-.4-.6.4v.6l.6.4.5-.4z" fill="#ffffff" stroke-width="none" opacity="1"></path></g></g></g><g id="svga-group-eyesfront-left"><path id="SvgjsPath7346" d="M67.1 89.3v11.9l7.9 8.4h11.2l7.9-8.4V89.3l-7.9-8.4H75l-7.9 8.4zm1.5 7c-.2-.2 5.9-4.4 6.1-4.4s13.3.8 13.3.8l4.5 3.9c-1.5.7-4.4 1.8-7.2 2.4-3.9.9-7.7.8-7.7.8-2.5-.4-8.7-3.3-9-3.5z" fill="#f0c7b1" stroke-width="none" opacity="1"></path><path id="SvgjsPath7347" d="m93 96.8-1.2-.5-4.1-3.4-12.9-.6-4.5 3.1-1.1 1 6.3 2.8-2.9-.7-4.7-2.1 1.8-1.8 5-3 13.3.9z" fill="#000000" stroke-width="none" opacity="1"></path><path id="SvgjsPath7348" d="m91.5 94.7-3.8-4.5-9.7-.1-2.9 1.3 3.4-.9 9.1.2z" fill="#e1ac8f" stroke-width="none" opacity="1"></path></g></g></g><g id="svga-group-eyes-right-move" transform="matrix(1,0,0,1,0,0)"><g id="svga-group-eyes-right"><g id="svga-group-eyesback-right"><path id="SvgjsPath7339" d="m107.5 96.6 4.5-3.9s13-.7 13.3-.7 6.3 4.2 6.1 4.4c-.2.2-6.5 3-9 3.5 0 0-3.8 0-7.7-.8-2.8-.8-5.7-1.9-7.2-2.5z" fill="#ffffff" stroke-width="none" opacity="1"></path></g><g id="svga-group-eyesiriswrapper-right" transform="matrix(1,0,0,1,0,0)"><g id="svga-group-eyesiriscontrol-right" transform="matrix(1,0,0,1,0,0)"><g id="svga-group-eyesiris-right"><path id="SvgjsPath7933" d="m117.4 99.5-2.6-1.9-1-3 1-3.1 2.6-1.9h3.2l2.6 1.9 1 3.1-1 3-2.6 1.9z" fill="#4e60a3" stroke-width="none" opacity="1"></path><path id="SvgjsPath7934" d="m120.5 89.8 2.5 1.8.9 2.9-.9 2.9-2.5 1.8h-3.1l-2.5-1.8-.9-2.9.9-2.9 2.5-1.8h3.1m.2-.5h-3.4l-2.8 2-1.1 3.2 1.1 3.2 2.8 2h3.4l2.8-2 1.1-3.2-1.1-3.2-2.8-2z" fill="#253984" stroke-width="none" opacity="1"></path><path id="SvgjsPath7935" d="M119.8 91.9h-1.6l-1.4 1-.6 1.7.6 1.6 1.4 1h1.6l1.4-1 .6-1.6-.6-1.7z" fill="#000000" stroke-width="none" opacity="1"></path><path id="SvgjsPath7936" d="m120.4 99.2.2-.8.9.2.1-.9.8.2s-.2-.8-.1-.8.8.1.8.1l-.5-.8.8-.2-.4-.9.9-.3-.7-.5.5-.7-.7-.3.3-.9-.6-.2.2-.8h-.6l-.1-.5h-.4l-.1-.6 1.3.7.8 1.9.5 1.5-.1.5-.8 2.5-2 1.5-.9.6-2.4-.2.5-.6.5.4.6-.4.7.3z" fill="#253984" stroke-width="none" opacity="1"></path><path id="SvgjsPath7937" d="m114.9 95.9 1.2-.4v.2l-1.2.4v-.2zm.9-1.8c-.5-.1-1-.1-1.1-.1l-.1-.2s.1 0 1.1.1l.1.2zm.5-2.9.1-.1.6.8-.1.1-.6-.8zm2.2-.7h.2v.9h-.2v-.9zm2.7 1.7.7-.6.1.1-.7.6-.1-.1zm1 1.7.7-.1v.2l-.7.1v-.2zm-.2 1.7.1-.2.7.3-.1.2-.7-.3zm-1.5 1.6.2-.1.4.8-.2.1-.4-.8zm-3.2 1.5.4-1.2.2.1-.4 1.2-.2-.1zm-1.2-1.3.3-.4.1.1-.3.4-.1-.1z" fill="#0e226d" stroke-width="none" opacity="1"></path><path id="SvgjsPath7938" d="m118.6 92.1-1-.3-.7.7.2.9 1 .3.7-.7z" fill="#ffffff" stroke-width="none" opacity="1"></path><path id="SvgjsPath7939" d="m120.7 96.3-.5-.4-.6.4v.6l.6.4.5-.4z" fill="#ffffff" stroke-width="none" opacity="1"></path></g></g></g><g id="svga-group-eyesfront-right"><path id="SvgjsPath7349" d="M125 80.8h-11.2l-7.9 8.4v11.9l7.9 8.4H125l7.9-8.4V89.3l-7.9-8.5zm-2.6 19s-3.8 0-7.7-.8c-2.8-.6-5.7-1.7-7.2-2.4l4.5-3.9s13-.7 13.3-.7 6.3 4.2 6.1 4.4-6.5 3-9 3.4z" fill="#f0c7b1" stroke-width="none" opacity="1"></path><path id="SvgjsPath7352" d="m107 96.8 1.2-.5 4.1-3.4 12.9-.6 4.5 3.1 1.1 1-6.3 2.8 2.9-.7 4.7-2.1-1.8-1.8-5-3-13.3.9z" fill="#000000" stroke-width="none" opacity="1"></path><path id="SvgjsPath7353" d="m108.5 94.7 3.8-4.5 9.7-.1 2.9 1.3-3.4-.9-9.1.2z" fill="#e1ac8f" stroke-width="none" opacity="1"></path></g></g></g><g id="svga-group-facehighlight-single"></g><g id="svga-group-eyebrows-left-move" transform="matrix(1,0,0,1,0,0)"><g id="svga-group-eyebrows-left-rotate" transform="matrix(1,1.7453292519943295e-9,-1.7453292519943295e-9,1,1.4451326535436237e-7,-1.3849188462700113e-7)"><g id="svga-group-eyebrows-left"><path id="SvgjsPath8241" d="m94 85.8-.6 2.4-2.4 1.6-13.1-7.1-7.9-.2-5.6 4.1 4.8-6 8.5-1.9 10.2 3.5z" fill="#2a232b" stroke-width="none" opacity="1"></path><path id="SvgjsPath8242" d="m90.4 83.7.8.5-.5 3.2-.3-3.7zm-6.2-2.8 1.5 3.1-2.1-3.2.6.1zm3.7 1.3.4.2c.2 1.6.5 4.3.5 4.3L87.3 82l.6.2zm-6.3-2.1.8 1.7-2.2-2.2 1.4.5zM69 82.2c.1 0 0 0 0 0zm-1.8 1c.8-.4 1.5-.8 1.8-.9-.3.2-1.6 1.3-2.9 2.2l1.1-1.3zm6.7-3.6 1.8 2-2.3-1.9.5-.1zm-4.7 1 1.7-.4 2.6.9c.1 0-2.4-.3-4.3-.5z" fill="#3a353a" stroke-width="none" opacity="1"></path></g></g></g><g id="svga-group-eyebrows-right-move" transform="matrix(1,0,0,1,0,0)"><g id="svga-group-eyebrows-right-rotate" transform="matrix(1,1.7453292519943295e-9,-1.7453292519943295e-9,1,1.4451326535436237e-7,-2.1057397248114285e-7)"><g id="svga-group-eyebrows-right"><path id="SvgjsPath8243" d="m106 85.8.6 2.4 2.4 1.6 13.1-7.1 7.9-.2 5.6 4.1-4.8-6-8.5-1.9-10.2 3.5z" fill="#2a232b" stroke-width="none" opacity="1"></path><path id="SvgjsPath8244" d="m109.6 83.7-.8.5.5 3.2.3-3.7zm6.2-2.8-1.5 3.1 2.1-3.2-.6.1zm-3.7 1.3-.4.2c-.2 1.6-.5 4.3-.5 4.3l1.5-4.8-.6.3zm6.3-2.1-.8 1.7 2.2-2.2-1.4.5zm12.6 2.1c-.1 0 0 0 0 0zm1.8 1c-.8-.4-1.5-.8-1.8-.9.4.2 1.6 1.3 2.9 2.2l-1.1-1.3zm-6.7-3.6-1.8 2 2.3-1.9-.5-.1zm4.7 1-1.7-.4-2.6.9c-.1 0 2.3-.3 4.3-.5z" fill="#3a353a" stroke-width="none" opacity="1"></path></g></g></g><g id="svga-group-beardwrap"><g id="svga-group-beard-single-move" transform="matrix(1,0,0,1,0,0)"><g id="svga-group-beard-single"></g></g></g><g id="svga-group-mustache-single-move" transform="matrix(1,0,0,1,0,0)"><g id="svga-group-mustache-single"></g></g><g id="svga-group-nose-single-move" transform="matrix(1,0,0,1,0,0)"><g id="svga-group-nose-single"><path id="SvgjsPath5671" d="m96.12 99.91-.45 6.4-5.78 8.87 2.98 2.25 1.63-2.02 4.32 3.82h2.41l4.27-3.82 1.57 1.96 3.15-2.19-5.79-8.92-.56-6.46-3.82-1.63z" fill="#f0c7b1" stroke-width="none" opacity="1" transform="translate(0 1)" stroke="none"></path><path id="SvgjsPath5672" d="m104.86 106.44-1.95-15.67 1.1 14.55-.86-.22 6.58 10.06-2.34 1.73-1.28-1.51.28-1.34-5.15 4.47h-2.4l-5.15-4.47.29 1.34-1.29 1.51-2.34-1.73 6.59-10.06-.86.22 1.33-22.81-2.19 23.93-5.82 8.83 3.81 2.79 1.44-2.01 4.19 3.91h2.4l4.2-3.91 1.43 2.01 3.81-2.79z" fill="#d19271" stroke-width="none" opacity="1" transform="translate(0 1)" stroke="none"></path><path id="SvgjsPath5673" d="m96.15 113.17 2.37 1.46 3.1.06 2.55-1.16-.3-1.76-3.59-.6-3.94.66z" fill="#f8d5c3" stroke-width="none" opacity="1" transform="translate(0 1)" stroke="none"></path></g></g><g id="svga-group-hair-front"><path id="SvgjsPath5144" d="M143.01 63.98c-2.54-5.83-19.15-23.84-19.15-23.84L100 36.33l-23.86 3.8s-16.61 18-19.15 23.84l-.93 24.3 4.58 4.03h2.56l.73-24.9 17.21-16.84 7.32 8.24L100 60.55l11.54-1.75 7.32-8.24 17.21 16.84.73 24.9h2.56l4.58-4.03-.93-24.29z" fill="#1b141c" stroke-width="none" opacity="1" stroke="none"></path><path id="SvgjsPath5145" d="M123.86 40.14 100 36.33l-9.09 1.45-11.22 4.57s8.72 13.88 9.72 13.88c.99 0 12.49 1.78 13.48 1.59.99-.2 8.33-.99 8.33-.99l8.33-7.53 18.04 18.24.92 24.77h.86l4.58-4.03-.93-24.3c-2.55-5.84-19.16-23.84-19.16-23.84z" fill="#2a232b" stroke-width="none" opacity="1" stroke="none"></path></g><g id="svga-group-glasses-single-move" transform="matrix(1,0,0,1,0,0)"><g id="svga-group-glasses-single"><path id="SvgjsPath8315" d="M72.3 101.7 85 91.9l.1.2-12.6 9.8-.2-.2zm6.3-1-.2-.2 9.8-7.6.2.2-9.8 7.6zm-7.8 0-.2-.2 9.9-7.6.1.2-9.8 7.6zm43 1 12.6-9.8.1.2-12.6 9.8-.1-.2zm6.3-1-.2-.2 9.8-7.6.2.2-9.8 7.6zm-7.8 0-.2-.2 9.8-7.6.2.2-9.8 7.6z" fill="#ffffff" stroke-width="none" opacity="0.5"></path><path id="SvgjsPath8316" d="M91.3 102.5H68l-1.1-1.2v-8.6l1.1-1.1h24.3l1.2 1.1v7.6l-2.2 2.2zm18 0h23.2l1.1-1.1v-8.7l-1.1-1.1h-24.3l-1.1 1.1v7.6l2.2 2.2z" fill="#ffffff" stroke-width="none" opacity="0.37"></path><path id="SvgjsPath8317" d="M94 94.9c.4 0 .8 1 .8 2.3s-.4 2.3-.8 2.3-.8-1-.8-2.3.4-2.3.8-2.3zm12.5 0c.4 0 .8 1 .8 2.3s-.4 2.3-.8 2.3-.8-1-.8-2.3.4-2.3.8-2.3z" fill="#939393" stroke-width="none" opacity="1"></path><path id="SvgjsPath8318" d="m93.5 94.1 6.8-.6 6.8.6v1.3l-6.8-.6-6.8.6z" fill="#070201" stroke-width="none" opacity="1"></path><path id="SvgjsPath8319" d="M92.3 91.2H65.2v1.9h1.3v8.3l1.5 1.5h23.3l2.6-2.6v-7.6l-1.6-1.5zm.8 9.1-1.8 1.8H68l-.7-.7v-8.7l.7-.7h24.3l.7.7.1 7.6zm42.2-9.1h-27.2l-1.5 1.5v7.6l2.6 2.6h23.3l1.5-1.5v-8.3h1.3v-1.9zm-2.1 10.1-.7.7h-23.3l-1.8-1.8v-7.6l.7-.7h24.3l.7.7.1 8.7z" fill="#26120b" stroke-width="none" opacity="1"></path></g></g></g></g></g><rect id="svga-credit-rect" width="200" height="15" x="0" y="185" fill="#ecf0f1" opacity="0.5" style="display: none;"></rect><text id="svga-credit-text" font-family="Avenir Next, Roboto, Helvetica, Arial, sans-serif" font-size="10px" text-anchor="start" font-weight="400" size="10px" anchor="start" weight="400" fill="#333333" x="33.40447998046875" y="182.60824704170227" style="display: none;"><tspan id="SvgjsTspan4915" dy="13" x="33.40447998046875">Created on AvatarMaker.com</tspan></text></g><defs id="SvgjsDefs4862"></defs></svg>